<?xml version="1.0" encoding="utf-8"?>
<!-- Generator: Adobe Illustrator 16.0.0, SVG Export Plug-In . SVG Version: 6.00 Build 0)  -->
<!DOCTYPE svg PUBLIC "-//W3C//DTD SVG 1.1//EN" "http://www.w3.org/Graphics/SVG/1.1/DTD/svg11.dtd">
<svg version="1.1" id="Layer_1" xmlns="http://www.w3.org/2000/svg" xmlns:xlink="http://www.w3.org/1999/xlink" x="0px" y="0px"
	 width="166.651px" height="146.245px" viewBox="-1 -1 166.651 146.245" enable-background="new -1 -1 166.651 146.245"
	 xml:space="preserve">
<path fill="none" stroke="#FFFFFF" stroke-width="8" stroke-linecap="round" stroke-miterlimit="10" d="M9.866,73.332
	c0.406-10.484,2.758-17.662,6.953-26.599c4.194-8.937,10.072-16.904,17.208-23.51c7.138-6.605,15.535-11.85,24.769-15.342
	C68.03,4.39,78.103,2.652,88.588,3.057c10.485,0.406,20.396,2.917,29.33,7.111c8.938,4.194,16.904,10.072,23.513,17.209
	c6.604,7.137,11.85,15.535,15.341,24.77c3.488,9.235,5.229,19.305,4.821,29.791c-0.402,10.487-2.918,20.396-7.108,29.33
	c-4.194,8.938-10.072,16.903-17.21,23.51"/>
<path fill="none" stroke="#FFFFFF" stroke-width="8" stroke-linecap="round" stroke-miterlimit="10" d="M123.71,110.087
	c0.984-1.192,1.914-2.437,2.782-3.721c0.868-1.285,1.677-2.615,2.421-3.984c0.744-1.368,1.424-2.778,2.035-4.225
	c0.611-1.447,1.154-2.929,1.625-4.441c0.471-1.512,0.869-3.059,1.191-4.631c0.319-1.573,0.565-3.176,0.729-4.799
	c0.166-1.625,0.25-3.274,0.25-4.943c0-1.668-0.084-3.315-0.25-4.94c-0.164-1.625-0.41-3.226-0.729-4.797
	c-0.322-1.573-0.724-3.119-1.191-4.632c-0.471-1.514-1.014-2.995-1.625-4.441c-0.611-1.445-1.291-2.855-2.035-4.225
	c-0.744-1.37-1.553-2.699-2.421-3.985c-0.868-1.286-1.798-2.527-2.782-3.721c-0.981-1.194-2.022-2.339-3.119-3.433
	c-1.094-1.094-2.235-2.135-3.433-3.12c-1.193-0.985-2.435-1.914-3.721-2.783c-1.286-0.868-2.615-1.677-3.985-2.421
	c-1.369-0.744-2.779-1.424-4.225-2.035c-1.446-0.611-2.931-1.154-4.441-1.625c-1.513-0.471-3.059-0.869-4.632-1.191
	c-1.573-0.322-3.175-0.567-4.799-0.732c-1.625-0.165-3.274-0.25-4.942-0.25s-3.314,0.084-4.939,0.25
	c-1.625,0.165-3.229,0.411-4.802,0.732c-1.57,0.322-3.116,0.721-4.632,1.191c-1.514,0.471-2.995,1.014-4.438,1.625
	c-1.445,0.611-2.855,1.291-4.228,2.035c-1.37,0.744-2.699,1.553-3.982,2.421c-1.286,0.869-2.527,1.798-3.724,2.783
	c-1.191,0.985-2.339,2.026-3.433,3.12c-1.093,1.093-2.134,2.239-3.119,3.433c-0.985,1.193-1.914,2.435-2.783,3.721
	c-0.869,1.286-1.677,2.615-2.421,3.985c-0.744,1.37-1.424,2.78-2.036,4.225c-0.608,1.446-1.151,2.927-1.625,4.441
	c-0.471,1.513-0.869,3.059-1.188,4.632"/>
<path fill="none" stroke="#FFFFFF" stroke-width="8" stroke-linecap="round" stroke-miterlimit="10" d="M66.704,70.966
	c0.262-0.618,0.552-1.221,0.871-1.807c0.318-0.585,0.664-1.154,1.035-1.704c0.372-0.55,0.769-1.081,1.188-1.591
	c0.424-0.51,0.866-1,1.334-1.468c0.47-0.467,0.957-0.913,1.47-1.334c0.51-0.421,1.041-0.818,1.59-1.189s1.118-0.717,1.704-1.035
	c0.586-0.318,1.188-0.609,1.807-0.871c0.619-0.262,1.252-0.494,1.899-0.695c0.646-0.201,1.308-0.372,1.979-0.509
	c0.673-0.137,1.357-0.243,2.052-0.313c0.695-0.07,1.4-0.106,2.113-0.106s1.418,0.036,2.113,0.106
	c0.695,0.071,1.379,0.176,2.052,0.313c0.673,0.137,1.334,0.308,1.98,0.509c0.646,0.201,1.277,0.433,1.896,0.695
	c0.618,0.262,1.223,0.552,1.81,0.871c0.586,0.318,1.151,0.664,1.701,1.035c0.553,0.371,1.08,0.769,1.594,1.189
	c0.511,0.421,1,0.867,1.468,1.334c0.467,0.467,0.912,0.958,1.334,1.468c0.421,0.51,0.818,1.041,1.188,1.591
	c0.371,0.549,0.72,1.118,1.035,1.704c0.318,0.586,0.609,1.188,0.87,1.807c0.261,0.619,0.493,1.252,0.694,1.899
	c0.201,0.646,0.372,1.309,0.51,1.98c0.138,0.67,0.242,1.355,0.313,2.053c0.067,0.691,0.104,1.396,0.104,2.109
	c0,0.715-0.036,1.419-0.104,2.113c-0.071,0.693-0.179,1.379-0.313,2.053c-0.137,0.674-0.309,1.334-0.51,1.98
	c-0.201,0.646-0.437,1.279-0.694,1.896c-0.26,0.617-0.552,1.221-0.87,1.807"/>
<path fill="none" stroke="#FFFFFF" stroke-width="8" stroke-linecap="round" stroke-miterlimit="10" d="M3,77.977
	c3.032-1.281,6.144-2.42,9.315-3.408c3.175-0.985,6.416-1.821,9.716-2.498c3.3-0.676,6.659-1.19,10.067-1.537
	c3.405-0.347,6.862-0.523,10.362-0.523s6.957,0.177,10.365,0.523c3.408,0.346,6.771,0.861,10.067,1.537
	c3.3,0.675,6.541,1.511,9.716,2.498c3.175,0.988,6.283,2.127,9.313,3.408c3.032,1.282,5.989,2.709,8.862,4.271
	c2.873,1.561,5.662,3.256,8.359,5.078c2.694,1.82,5.302,3.771,7.805,5.836c2.504,2.066,4.906,4.25,7.199,6.545
	c2.293,2.293,4.477,4.693,6.543,7.197c2.063,2.506,4.015,5.106,5.837,7.807c1.821,2.697,3.518,5.484,5.078,8.357
	c1.56,2.873,2.985,5.83,4.27,8.863c1.282,3.029,2.422,6.139,3.409,9.313"/>
</svg>
